<svg xmlns="http://www.w3.org/2000/svg" viewBox="0 0 100 100" width="100" height="100">
<title>Alien grass</title>
<metadata id="map-weaver-asset"><![CDATA[{"id":"alien-grass","name":"Alien grass","settings":["scifi"],"footprint":{"w":1,"h":1},"roomTypes":["jungle","colony-yard"],"placement":"free","wallSide":"n","layer":"floor","blocksMovement":false,"blocksVision":false,"weight":2,"min":0,"max":0,"tags":[],"clutter":true}]]></metadata>
<style>.o{fill:var(--paper,#fff);stroke:var(--ink,#1b1b1b);stroke-width:6;stroke-linejoin:round;stroke-linecap:round}
.s{fill:var(--shade,#c6c6c6);stroke:var(--ink,#1b1b1b);stroke-width:6;stroke-linejoin:round;stroke-linecap:round}
.m{fill:var(--mid,#8d8d8d);stroke:var(--ink,#1b1b1b);stroke-width:6;stroke-linejoin:round;stroke-linecap:round}
.k{fill:var(--ink,#1b1b1b);stroke:none}
.ko{fill:var(--ink,#1b1b1b);stroke:var(--ink,#1b1b1b);stroke-width:6;stroke-linejoin:round}
.p{fill:var(--paper,#fff);stroke:none}
.h{fill:var(--shade,#c6c6c6);stroke:none}
.hm{fill:var(--mid,#8d8d8d);stroke:none}
.l{fill:none;stroke:var(--ink,#1b1b1b);stroke-width:4.5;stroke-linejoin:round;stroke-linecap:round}
.t{fill:none;stroke:var(--ink,#1b1b1b);stroke-width:3;stroke-linejoin:round;stroke-linecap:round}
.pl{fill:none;stroke:var(--paper,#fff);stroke-width:3.5;stroke-linejoin:round;stroke-linecap:round}
.d{fill:none;stroke:var(--ink,#1b1b1b);stroke-width:3.5;stroke-dasharray:8 7;stroke-linecap:round}</style>
<path class="l" d="M26 66q-12 -20 -4 -34"/><path class="l" d="M26 66q10 -18 14 -30"/><circle class="m" cx="22" cy="32" r="4"/><circle class="m" cx="40" cy="36" r="4"/><path class="l" d="M56 74q-12 -20 -4 -34"/><path class="l" d="M56 74q10 -18 14 -30"/><circle class="m" cx="52" cy="40" r="4"/><circle class="m" cx="70" cy="44" r="4"/><path class="l" d="M76 50q-12 -20 -4 -34"/><path class="l" d="M76 50q10 -18 14 -30"/><circle class="m" cx="72" cy="16" r="4"/><circle class="m" cx="90" cy="20" r="4"/><path class="l" d="M40 38q-12 -20 -4 -34"/><path class="l" d="M40 38q10 -18 14 -30"/><circle class="m" cx="36" cy="4" r="4"/><circle class="m" cx="54" cy="8" r="4"/>
</svg>
