<svg xmlns="http://www.w3.org/2000/svg" viewBox="0 0 200 200" width="200" height="200">
<title>Crater</title>
<metadata id="map-weaver-asset"><![CDATA[{"id":"crater","name":"Crater","settings":["scifi"],"footprint":{"w":2,"h":2},"roomTypes":["crash-site","wasteland"],"placement":"free","wallSide":"n","layer":"floor","blocksMovement":false,"blocksVision":false,"weight":1,"min":0,"max":2,"tags":["difficult terrain"]}]]></metadata>
<style>.o{fill:var(--paper,#fff);stroke:var(--ink,#1b1b1b);stroke-width:6;stroke-linejoin:round;stroke-linecap:round}
.s{fill:var(--shade,#c6c6c6);stroke:var(--ink,#1b1b1b);stroke-width:6;stroke-linejoin:round;stroke-linecap:round}
.m{fill:var(--mid,#8d8d8d);stroke:var(--ink,#1b1b1b);stroke-width:6;stroke-linejoin:round;stroke-linecap:round}
.k{fill:var(--ink,#1b1b1b);stroke:none}
.ko{fill:var(--ink,#1b1b1b);stroke:var(--ink,#1b1b1b);stroke-width:6;stroke-linejoin:round}
.p{fill:var(--paper,#fff);stroke:none}
.h{fill:var(--shade,#c6c6c6);stroke:none}
.hm{fill:var(--mid,#8d8d8d);stroke:none}
.l{fill:none;stroke:var(--ink,#1b1b1b);stroke-width:4.5;stroke-linejoin:round;stroke-linecap:round}
.t{fill:none;stroke:var(--ink,#1b1b1b);stroke-width:3;stroke-linejoin:round;stroke-linecap:round}
.pl{fill:none;stroke:var(--paper,#fff);stroke-width:3.5;stroke-linejoin:round;stroke-linecap:round}
.d{fill:none;stroke:var(--ink,#1b1b1b);stroke-width:3.5;stroke-dasharray:8 7;stroke-linecap:round}</style>
<polygon class="h" points="178.9,100 176.8,137 157.1,171.6 115.1,166.2 83.5,172.4 49.7,163 21.6,137.7 6.7,100 37.3,69.8 52.6,40.6 81.7,19.8 119.7,13.6 140.5,49.2 164.2,69.1"/><polygon class="hm" points="144.3,100 142,124.2 126.3,145.6 100,156.8 69.5,152.8 60.6,122.7 50.4,100 53.5,73.1 71.1,49.9 100,57.6 123.3,59.7 143.9,74.6"/><circle class="k" cx="100" cy="100" r="24"/><circle class="hm" cx="20" cy="40" r="5"/><circle class="hm" cx="176" cy="60" r="5"/><circle class="hm" cx="30" cy="170" r="5"/><circle class="hm" cx="168" cy="160" r="5"/><circle class="hm" cx="100" cy="8" r="5"/>
</svg>
