<svg xmlns="http://www.w3.org/2000/svg" viewBox="0 0 100 200" width="100" height="200">
<title>Power generator</title>
<metadata id="map-weaver-asset"><![CDATA[{"id":"generator","name":"Power generator","settings":["scifi"],"footprint":{"w":1,"h":2},"roomTypes":["engine-room","cargo-bay","workshop","mine","server-room"],"placement":"wall","wallSide":"n","layer":"object","blocksMovement":true,"blocksVision":false,"weight":1,"min":0,"max":2,"tags":[]}]]></metadata>
<style>.o{fill:var(--paper,#fff);stroke:var(--ink,#1b1b1b);stroke-width:6;stroke-linejoin:round;stroke-linecap:round}
.s{fill:var(--shade,#c6c6c6);stroke:var(--ink,#1b1b1b);stroke-width:6;stroke-linejoin:round;stroke-linecap:round}
.m{fill:var(--mid,#8d8d8d);stroke:var(--ink,#1b1b1b);stroke-width:6;stroke-linejoin:round;stroke-linecap:round}
.k{fill:var(--ink,#1b1b1b);stroke:none}
.ko{fill:var(--ink,#1b1b1b);stroke:var(--ink,#1b1b1b);stroke-width:6;stroke-linejoin:round}
.p{fill:var(--paper,#fff);stroke:none}
.h{fill:var(--shade,#c6c6c6);stroke:none}
.hm{fill:var(--mid,#8d8d8d);stroke:none}
.l{fill:none;stroke:var(--ink,#1b1b1b);stroke-width:4.5;stroke-linejoin:round;stroke-linecap:round}
.t{fill:none;stroke:var(--ink,#1b1b1b);stroke-width:3;stroke-linejoin:round;stroke-linecap:round}
.pl{fill:none;stroke:var(--paper,#fff);stroke-width:3.5;stroke-linejoin:round;stroke-linecap:round}
.d{fill:none;stroke:var(--ink,#1b1b1b);stroke-width:3.5;stroke-dasharray:8 7;stroke-linecap:round}</style>
<defs><filter id="sh" x="-15%" y="-15%" width="130%" height="130%"><feDropShadow dx="3" dy="5" stdDeviation="3" style="flood-color:var(--ink,#1b1b1b);flood-opacity:0.35"/></filter></defs>
<g filter="url(#sh)">
<polygon class="s" points="22,4 78,4 94,20 94,180 78,196 22,196 6,180 6,20"/><polygon class="o" points="22,14 78,14 84,20 84,58 78,64 22,64 16,58 16,20"/><path class="l" d="M24 22L76 22M24 30L76 30M24 38L76 38M24 46L76 46M24 54L76 54"/><polygon class="ko" points="32,78 68,78 78,88 78,152 68,162 32,162 22,152 22,88"/><polygon class="p" points="56,88 36,124 50,124 42,152 66,114 52,114"/><circle class="k" cx="24.5" cy="178" r="3.5"/><circle class="k" cx="41.5" cy="178" r="3.5"/><circle class="k" cx="58.5" cy="178" r="3.5"/><circle class="k" cx="75.5" cy="178" r="3.5"/>
</g>
</svg>
