<svg xmlns="http://www.w3.org/2000/svg" viewBox="0 0 300 300" width="300" height="300">
<title>Round table</title>
<metadata id="map-weaver-asset"><![CDATA[{"id":"round-table","name":"Round table","settings":["fantasy"],"footprint":{"w":3,"h":3},"roomTypes":["tavern","great-hall","library"],"placement":"centre","wallSide":"n","layer":"object","blocksMovement":true,"blocksVision":false,"weight":2,"min":0,"max":4,"tags":[],"generator":{"id":"table","params":{"w":2,"h":2,"chairs":true,"round":true},"sizes":{"w":[1,3],"h":[1,3]}}}]]></metadata>
<style>.o{fill:var(--paper,#fff);stroke:var(--ink,#1b1b1b);stroke-width:5;stroke-linejoin:round;stroke-linecap:round}
.s{fill:var(--shade,#c6c6c6);stroke:var(--ink,#1b1b1b);stroke-width:5;stroke-linejoin:round;stroke-linecap:round}
.m{fill:var(--mid,#8d8d8d);stroke:var(--ink,#1b1b1b);stroke-width:5;stroke-linejoin:round;stroke-linecap:round}
.k{fill:var(--ink,#1b1b1b);stroke:none}
.p{fill:var(--paper,#fff);stroke:none}
.h{fill:var(--shade,#c6c6c6);stroke:none}
.l{fill:none;stroke:var(--ink,#1b1b1b);stroke-width:4;stroke-linejoin:round;stroke-linecap:round}
.t{fill:none;stroke:var(--ink,#1b1b1b);stroke-width:2.5;stroke-linejoin:round;stroke-linecap:round}
.d{fill:none;stroke:var(--ink,#1b1b1b);stroke-width:3;stroke-dasharray:8 7;stroke-linecap:round}</style>
<rect class="o" x="82" y="10" width="36" height="36" rx="6"/><line class="l" x1="82" y1="10" x2="118" y2="10"/><rect class="o" x="82" y="254" width="36" height="36" rx="6"/><line class="l" x1="82" y1="290" x2="118" y2="290"/><rect class="o" x="182" y="10" width="36" height="36" rx="6"/><line class="l" x1="182" y1="10" x2="218" y2="10"/><rect class="o" x="182" y="254" width="36" height="36" rx="6"/><line class="l" x1="182" y1="290" x2="218" y2="290"/><rect class="o" x="10" y="82" width="36" height="36" rx="6"/><line class="l" x1="10" y1="82" x2="10" y2="118"/><rect class="o" x="254" y="82" width="36" height="36" rx="6"/><line class="l" x1="290" y1="82" x2="290" y2="118"/><rect class="o" x="10" y="182" width="36" height="36" rx="6"/><line class="l" x1="10" y1="182" x2="10" y2="218"/><rect class="o" x="254" y="182" width="36" height="36" rx="6"/><line class="l" x1="290" y1="182" x2="290" y2="218"/><ellipse class="o" cx="150" cy="150" rx="94" ry="94"/>
</svg>
