<svg xmlns="http://www.w3.org/2000/svg" viewBox="0 0 100 100" width="100" height="100">
<title>Straw pile</title>
<metadata id="map-weaver-asset"><![CDATA[{"id":"straw","name":"Straw pile","settings":["classic","fantasy"],"footprint":{"w":1,"h":1},"roomTypes":["prison","barracks","storeroom","cellar"],"placement":"corner","wallSide":"n","layer":"floor","blocksMovement":false,"blocksVision":false,"weight":1,"min":0,"max":2,"tags":[]}]]></metadata>
<style>.o{fill:var(--paper,#fff);stroke:var(--ink,#1b1b1b);stroke-width:6;stroke-linejoin:round;stroke-linecap:round}
.s{fill:var(--shade,#c6c6c6);stroke:var(--ink,#1b1b1b);stroke-width:6;stroke-linejoin:round;stroke-linecap:round}
.m{fill:var(--mid,#8d8d8d);stroke:var(--ink,#1b1b1b);stroke-width:6;stroke-linejoin:round;stroke-linecap:round}
.k{fill:var(--ink,#1b1b1b);stroke:none}
.ko{fill:var(--ink,#1b1b1b);stroke:var(--ink,#1b1b1b);stroke-width:6;stroke-linejoin:round}
.p{fill:var(--paper,#fff);stroke:none}
.h{fill:var(--shade,#c6c6c6);stroke:none}
.hm{fill:var(--mid,#8d8d8d);stroke:none}
.l{fill:none;stroke:var(--ink,#1b1b1b);stroke-width:4.5;stroke-linejoin:round;stroke-linecap:round}
.t{fill:none;stroke:var(--ink,#1b1b1b);stroke-width:3;stroke-linejoin:round;stroke-linecap:round}
.pl{fill:none;stroke:var(--paper,#fff);stroke-width:3.5;stroke-linejoin:round;stroke-linecap:round}
.d{fill:none;stroke:var(--ink,#1b1b1b);stroke-width:3.5;stroke-dasharray:8 7;stroke-linecap:round}</style>
<ellipse class="h" cx="48" cy="52" rx="38" ry="30"/><path class="t" d="M16 26L32 26M53 27L58.2 42.1M26 28L13.4 37.9M63 29L76.4 37.7M36 30L32.1 45.5M73 31L57.1 32.4M46 32L52.5 46.6M19 33L7.3 43.9M56 34L70.1 41.5M29 35L26.5 50.8M66 36L50.2 38.8M39 37L46.8 51M76 38L65.3 49.9M49 39L63.7 45.3M22 40L20.9 56M59 41L43.5 45.1M32 42L40.9 55.3M69 43L59.4 55.8M42 44L57.2 48.9M79 45L79.3 61M52 46L37 51.5M25 47L35.1 59.4M62 48L53.5 61.6M35 49L50.6 52.6M72 50L73.7 65.9M45 51L30.5 57.8"/>
</svg>
